<svg width="602" height="74" viewBox="0 0 602 74" fill="none" xmlns="http://www.w3.org/2000/svg">
<g clip-path="url(#clip0_293_56)">
<rect width="602" height="74" fill="#F4F7F0"/>
<path d="M14.88 68.4C11.392 68.4 8.464 67.68 6.096 66.24C3.728 64.768 2.544 62.528 2.544 59.52V51.936C2.544 48.736 3.744 46.4 6.144 44.928C8.544 43.424 11.456 42.672 14.88 42.672V38.688H22.272V42.672C25.664 42.672 28.56 43.424 30.96 44.928C33.392 46.432 34.608 48.768 34.608 51.936V59.52C34.608 61.44 34.032 63.072 32.88 64.416C31.728 65.76 30.208 66.768 28.32 67.44C26.464 68.08 24.448 68.4 22.272 68.4V72.48H14.88V68.4ZM14.976 47.616C13.536 47.616 12.352 47.968 11.424 48.672C10.496 49.376 10.032 50.304 10.032 51.456V59.904C10.032 60.992 10.496 61.856 11.424 62.496C12.384 63.104 13.568 63.408 14.976 63.408V47.616ZM22.176 63.456C23.584 63.456 24.752 63.136 25.68 62.496C26.64 61.856 27.12 60.992 27.12 59.904V51.456C27.12 50.304 26.656 49.376 25.728 48.672C24.8 47.968 23.616 47.616 22.176 47.616V63.456ZM50.2279 40.848H59.3479L70.5799 72H62.9959L60.2119 63.792H48.8359L46.0999 72H38.7079L50.2279 40.848ZM58.5799 58.8L54.6439 47.088H54.4519L50.5159 58.8H58.5799ZM75.4744 40.848H97.6024V46.176H82.9624V53.232H87.6184C90.4984 53.232 92.8024 53.408 94.5304 53.76C96.2584 54.08 97.5704 54.72 98.4664 55.68C99.3944 56.608 99.8584 57.952 99.8584 59.712V64.608C99.8584 69.536 95.6664 72 87.2824 72H75.4744V40.848ZM86.9464 66.672C88.8344 66.672 90.2104 66.416 91.0744 65.904C91.9384 65.36 92.3704 64.544 92.3704 63.456V61.104C92.3704 60.112 91.9544 59.44 91.1224 59.088C90.2904 58.736 88.9304 58.56 87.0424 58.56H82.9144V66.672H86.9464ZM106.586 40.848H119.066C122.106 40.848 124.506 41.056 126.266 41.472C128.058 41.888 129.354 42.624 130.154 43.68C130.986 44.704 131.402 46.144 131.402 48V53.904C131.402 55.952 130.954 57.552 130.058 58.704C129.194 59.856 127.802 60.672 125.882 61.152C123.994 61.632 121.434 61.872 118.202 61.872H114.074V72H106.586V40.848ZM118.826 56.736C120.778 56.736 122.154 56.512 122.954 56.064C123.754 55.584 124.154 54.784 124.154 53.664V48.672C124.154 47.648 123.77 46.976 123.002 46.656C122.266 46.336 120.842 46.176 118.73 46.176H114.074V56.736H118.826ZM138.12 40.848H145.608V62.16L159.048 40.848H166.536V72H159.048V50.352L145.608 72H138.12V40.848ZM174.716 40.848H182.204V53.136C183.612 53.136 184.748 52.88 185.612 52.368C186.476 51.824 187.42 50.8 188.444 49.296L194.3 40.848H202.7L195.98 50.208C194.956 51.648 194.012 52.752 193.148 53.52C192.316 54.256 191.276 54.864 190.028 55.344V55.44C191.628 55.824 192.956 56.512 194.012 57.504C195.1 58.496 196.156 59.936 197.18 61.824L202.7 72H194.3L189.212 62.832C188.54 61.616 187.884 60.704 187.244 60.096C186.636 59.456 185.948 59.024 185.18 58.8C184.412 58.576 183.42 58.464 182.204 58.464V72H174.716V40.848ZM215.865 40.848H224.985L236.217 72H228.633L225.849 63.792H214.473L211.737 72H204.345L215.865 40.848ZM224.217 58.8L220.281 47.088H220.089L216.153 58.8H224.217Z" fill="#272A23"/>
<path d="M376.88 68.4C373.392 68.4 370.464 67.68 368.096 66.24C365.728 64.768 364.544 62.528 364.544 59.52V51.936C364.544 48.736 365.744 46.4 368.144 44.928C370.544 43.424 373.456 42.672 376.88 42.672V38.688H384.272V42.672C387.664 42.672 390.56 43.424 392.96 44.928C395.392 46.432 396.608 48.768 396.608 51.936V59.52C396.608 61.44 396.032 63.072 394.88 64.416C393.728 65.76 392.208 66.768 390.32 67.44C388.464 68.08 386.448 68.4 384.272 68.4V72.48H376.88V68.4ZM376.976 47.616C375.536 47.616 374.352 47.968 373.424 48.672C372.496 49.376 372.032 50.304 372.032 51.456V59.904C372.032 60.992 372.496 61.856 373.424 62.496C374.384 63.104 375.568 63.408 376.976 63.408V47.616ZM384.176 63.456C385.584 63.456 386.752 63.136 387.68 62.496C388.64 61.856 389.12 60.992 389.12 59.904V51.456C389.12 50.304 388.656 49.376 387.728 48.672C386.8 47.968 385.616 47.616 384.176 47.616V63.456ZM408.484 72.48C407.332 72.48 405.94 72.32 404.308 72V66.528C404.98 66.688 405.636 66.832 406.276 66.96C406.948 67.088 407.588 67.152 408.196 67.152C409.092 67.152 409.844 66.944 410.452 66.528C411.092 66.08 411.636 65.408 412.084 64.512L412.756 63.12L400.708 40.848H408.532L416.356 56.496H416.548L422.74 40.848H430.276L418.996 65.856C417.972 68.16 416.676 69.84 415.108 70.896C413.54 71.952 411.332 72.48 408.484 72.48ZM441.815 46.176H432.215V40.848H458.855V46.176H449.303V72H441.815V46.176ZM464.602 40.848H486.73V46.176H472.09V53.232H476.746C479.626 53.232 481.93 53.408 483.658 53.76C485.386 54.08 486.698 54.72 487.594 55.68C488.522 56.608 488.986 57.952 488.986 59.712V64.608C488.986 69.536 484.794 72 476.41 72H464.602V40.848ZM476.074 66.672C477.962 66.672 479.338 66.416 480.202 65.904C481.066 65.36 481.498 64.544 481.498 63.456V61.104C481.498 60.112 481.082 59.44 480.25 59.088C479.418 58.736 478.058 58.56 476.17 58.56H472.042V66.672H476.074ZM509.778 72.48C508.05 72.48 506.45 72.368 504.978 72.144C503.538 71.92 502.034 71.536 500.466 70.992C498.77 70.416 497.442 69.488 496.482 68.208C495.522 66.896 495.042 65.312 495.042 63.456V49.824C495.042 48.288 495.378 46.912 496.05 45.696C496.754 44.48 497.65 43.52 498.738 42.816C499.698 42.208 500.882 41.696 502.29 41.28C503.698 40.864 505.01 40.608 506.226 40.512C507.346 40.416 508.53 40.368 509.778 40.368C511.25 40.368 512.53 40.432 513.618 40.56C514.706 40.656 515.922 40.88 517.266 41.232C518.802 41.68 520.066 42.224 521.058 42.864C522.05 43.504 522.882 44.4 523.554 45.552C524.258 46.736 524.61 48.16 524.61 49.824V63.456C524.61 65.184 524.146 66.672 523.218 67.92C522.322 69.168 521.074 70.112 519.474 70.752C516.594 71.904 513.362 72.48 509.778 72.48ZM509.874 67.152C510.93 67.152 511.81 67.12 512.514 67.056C513.25 66.96 514.002 66.8 514.77 66.576C515.538 66.352 516.114 65.984 516.498 65.472C516.914 64.928 517.122 64.256 517.122 63.456V49.776C517.122 48.304 516.53 47.264 515.346 46.656C514.162 46.016 512.322 45.696 509.826 45.696C507.33 45.696 505.49 46 504.306 46.608C503.122 47.216 502.53 48.272 502.53 49.776V63.456C502.53 64.256 502.738 64.928 503.154 65.472C503.57 65.984 504.178 66.352 504.978 66.576C505.746 66.8 506.482 66.96 507.186 67.056C507.922 67.12 508.818 67.152 509.874 67.152ZM533.708 72.384C533.196 72.384 532.652 72.32 532.076 72.192C531.5 72.096 531.084 72.032 530.828 72V66.144C531.532 66.24 532.124 66.288 532.604 66.288C534.204 66.288 535.436 65.84 536.3 64.944C537.164 64.016 537.788 62.192 538.172 59.472C538.588 56.752 538.796 52.624 538.796 47.088V40.848H561.452V72H553.964V46.128H545.564V50.448C545.564 56.368 545.02 60.944 543.932 64.176C542.876 67.408 541.484 69.584 539.756 70.704C538.06 71.824 536.044 72.384 533.708 72.384ZM577.865 40.848H586.985L598.217 72H590.633L587.849 63.792H576.473L573.737 72H566.345L577.865 40.848ZM586.217 58.8L582.281 47.088H582.089L578.153 58.8H586.217Z" fill="#272A23"/>
<mask id="mask0_293_56" style="mask-type:luminance" maskUnits="userSpaceOnUse" x="248" y="0" width="103" height="72">
<path d="M351 0H248V71.5415H351V0Z" fill="white"/>
</mask>
<g mask="url(#mask0_293_56)">
<mask id="mask1_293_56" style="mask-type:luminance" maskUnits="userSpaceOnUse" x="248" y="0" width="103" height="78">
<path d="M351 0H248V77.6736H351V0Z" fill="white"/>
</mask>
<g mask="url(#mask1_293_56)">
<path d="M350.83 42.0947H345.188V62.0479H350.83V42.0947Z" fill="#66B821"/>
<path d="M311.672 52.0733C311.671 49.2112 310.643 46.4376 308.763 44.2231C306.884 42.0086 304.268 40.4893 301.359 39.9229V64.2629C304.275 63.6953 306.896 62.1704 308.776 59.9477C310.657 57.725 311.68 54.9421 311.672 52.0733Z" fill="#66B821"/>
<path d="M301.359 25.918V36.0298C305.332 36.6183 308.955 38.5591 311.573 41.5011C314.19 44.4431 315.629 48.1919 315.629 52.0686C315.629 55.9454 314.19 59.6941 311.573 62.6359C308.955 65.5779 305.332 67.5189 301.359 68.1072V77.5795H350.837V65.8712H343.225C342.966 65.8702 342.709 65.8201 342.47 65.7235C342.23 65.627 342.013 65.4857 341.83 65.3081C341.647 65.1305 341.502 64.9199 341.404 64.6883C341.305 64.4568 341.255 64.2086 341.256 63.9582V40.1791C341.255 39.9287 341.305 39.6805 341.404 39.4489C341.502 39.2173 341.647 39.0066 341.83 38.829C342.013 38.6513 342.23 38.5103 342.47 38.4136C342.709 38.3171 342.966 38.2668 343.225 38.266H350.837V25.918H301.359Z" fill="#66B821"/>
<path d="M253.653 42.0947H248.011V62.0479H253.653V42.0947Z" fill="#007A32"/>
<path d="M287.169 52.0733C287.17 49.2102 288.199 46.436 290.08 44.2213C291.961 42.0065 294.578 40.488 297.488 39.9229V64.2629C294.571 63.6967 291.948 62.1721 290.067 59.9494C288.185 57.7265 287.161 54.9429 287.169 52.0733Z" fill="#007A32"/>
<path d="M297.488 25.918V36.0298C293.515 36.6183 289.892 38.5591 287.275 41.5011C284.658 44.4431 283.219 48.1919 283.219 52.0686C283.219 55.9454 284.658 59.6941 287.275 62.6359C289.892 65.5779 293.515 67.5189 297.488 68.1072V77.5795H248.011V65.8712H255.622C255.882 65.8702 256.139 65.8201 256.378 65.7235C256.618 65.627 256.835 65.4857 257.018 65.3081C257.201 65.1305 257.346 64.9199 257.444 64.6883C257.543 64.4568 257.593 64.2086 257.592 63.9582V40.1791C257.593 39.9287 257.543 39.6805 257.444 39.4489C257.346 39.2173 257.201 39.0066 257.018 38.829C256.835 38.6513 256.618 38.5103 256.378 38.4136C256.139 38.3171 255.882 38.2668 255.622 38.266H248.011V25.918H297.488Z" fill="#007A32"/>
<path d="M299.424 0.0240479C276.248 0.122991 255.622 8.63209 248.011 21.2639H253.591C255.307 19.1153 257.32 17.2043 259.575 15.5845L269.046 21.2902H276.569L286.649 6.58069L297.023 21.2902H299.444L299.424 0.0240479ZM271.85 18.5792L263.07 13.3022C265.861 11.6801 268.8 10.3068 271.85 9.19937V18.5792ZM275.707 15.7428V7.9197C277.759 7.29308 279.961 6.74558 282.19 6.29045L275.707 15.7428ZM290.246 5.03715C292.694 4.7733 295.197 4.61501 297.707 4.55563V15.6175L290.246 5.03715Z" fill="#007A32"/>
<path d="M299.423 21.2878H301.872L312.246 6.57823L322.326 21.2878H329.848L339.306 15.6084C341.561 17.2283 343.574 19.1392 345.29 21.2878H350.87C343.259 8.65604 322.633 0.146917 299.457 0.0479736L299.423 21.2878ZM326.997 9.20351C330.047 10.3109 332.986 11.6842 335.777 13.3064L326.997 18.5833V9.20351ZM316.65 6.28139C318.879 6.74314 321.054 7.29062 323.133 7.91066V15.7404L316.65 6.28139ZM301.188 15.615V4.55319C303.697 4.61255 306.2 4.77086 308.649 5.03471L301.188 15.615Z" fill="#66B821"/>
</g>
</g>
</g>
<defs>
<clipPath id="clip0_293_56">
<rect width="602" height="74" fill="white"/>
</clipPath>
</defs>
</svg>
